<?xml version="1.0" standalone="no"?>
<!DOCTYPE svg PUBLIC "-//W3C//DTD SVG 20010904//EN"
 "http://www.w3.org/TR/2001/REC-SVG-20010904/DTD/svg10.dtd">
<svg version="1.0" xmlns="http://www.w3.org/2000/svg"
 width="1288.000000pt" height="866.000000pt" viewBox="0 0 1288.000000 866.000000"
 preserveAspectRatio="xMidYMid meet">

<g transform="translate(0.000000,866.000000) scale(0.100000,-0.100000)"
fill="#000000" stroke="none">
<path d="M3890 8380 c-69 -3 -156 -12 -195 -18 -129 -23 -199 -32 -308 -42
-69 -6 -134 -19 -178 -35 -39 -14 -103 -30 -142 -36 -40 -6 -96 -22 -125 -36
-30 -13 -81 -30 -115 -38 -34 -7 -82 -24 -107 -38 -25 -14 -65 -30 -88 -37
-24 -6 -65 -24 -90 -39 -26 -16 -60 -32 -76 -35 -16 -4 -43 -18 -61 -31 -17
-14 -46 -30 -64 -36 -18 -7 -55 -27 -83 -45 -27 -19 -56 -34 -62 -34 -7 0 -21
-9 -32 -21 -10 -12 -37 -30 -59 -41 -22 -12 -57 -36 -78 -54 -20 -19 -44 -34
-52 -34 -9 0 -18 -6 -20 -12 -3 -7 -37 -38 -77 -68 -211 -162 -412 -363 -535
-533 -13 -17 -30 -35 -38 -40 -8 -4 -15 -13 -15 -20 0 -7 -17 -33 -37 -59 -41
-51 -88 -122 -116 -177 -11 -20 -29 -47 -42 -61 -12 -14 -26 -38 -29 -55 -4
-16 -20 -46 -36 -66 -16 -20 -33 -54 -39 -76 -6 -22 -23 -58 -38 -79 -14 -22
-30 -57 -35 -79 -5 -21 -21 -62 -35 -90 -14 -27 -32 -79 -39 -114 -8 -35 -25
-85 -38 -110 -13 -26 -29 -84 -35 -130 -7 -46 -24 -122 -37 -169 -60 -205 -59
-898 0 -1109 14 -51 31 -126 37 -167 5 -42 23 -104 38 -138 16 -35 32 -83 36
-108 4 -25 20 -67 36 -95 15 -27 33 -70 39 -94 6 -25 23 -59 36 -76 13 -18 29
-47 35 -66 7 -19 20 -43 30 -54 9 -11 28 -38 41 -61 36 -65 84 -136 113 -169
14 -16 45 -52 68 -80 57 -68 206 -215 217 -215 5 0 22 -16 37 -35 15 -19 32
-35 37 -35 5 0 28 -17 52 -37 66 -58 112 -94 158 -125 64 -44 103 -73 142
-107 19 -17 40 -31 47 -31 7 0 29 -16 50 -35 21 -19 44 -35 52 -35 7 0 32 -16
55 -35 23 -19 49 -35 57 -35 19 0 93 -41 93 -51 0 -5 23 -15 51 -23 28 -9 74
-29 103 -46 30 -16 62 -30 72 -30 11 0 42 -15 69 -33 28 -19 64 -37 80 -41 17
-4 46 -20 65 -35 19 -16 46 -32 60 -36 14 -4 43 -21 65 -37 41 -30 113 -77
172 -114 18 -11 46 -33 61 -47 16 -15 32 -27 38 -27 5 0 22 -13 39 -30 51 -51
122 -110 132 -110 5 0 27 -15 49 -34 21 -18 61 -43 89 -55 27 -12 56 -28 65
-36 37 -33 268 -50 425 -31 99 12 131 20 185 48 36 18 74 38 86 43 107 52 278
204 384 340 25 32 57 70 73 84 15 14 27 30 27 35 0 9 82 90 161 159 24 20 53
46 64 56 11 10 34 26 50 37 17 10 49 33 72 51 24 17 52 34 63 38 11 4 32 17
46 30 13 12 39 29 57 36 17 7 54 28 81 46 26 18 53 33 60 33 6 0 36 16 66 35
30 19 61 35 71 35 9 0 45 15 80 34 36 19 82 38 104 42 22 4 59 17 83 30 23 12
68 28 100 34 82 16 127 26 210 49 89 24 146 29 462 41 222 9 315 18 496 49 32
5 91 13 129 16 42 4 98 19 139 36 38 16 87 32 110 36 22 3 68 21 101 38 33 18
73 36 89 39 16 4 43 18 61 31 17 14 47 30 66 37 19 6 48 23 65 38 16 14 44 32
62 39 18 7 32 17 32 21 0 5 24 24 53 43 44 30 169 140 202 178 6 6 24 25 41
43 35 35 99 108 159 181 68 83 198 229 218 245 10 8 39 34 63 58 25 23 51 42
59 42 8 0 18 6 22 13 12 20 78 57 101 57 12 0 43 8 69 19 66 25 130 33 183 22
81 -18 164 -52 209 -87 24 -19 50 -34 56 -34 7 0 30 -13 53 -30 22 -16 54 -32
69 -36 15 -3 62 -22 104 -40 73 -32 85 -34 225 -40 208 -9 341 6 424 45 47 22
80 31 117 31 46 0 55 -3 70 -27 10 -16 26 -34 35 -41 10 -7 25 -26 33 -42 8
-16 25 -40 38 -54 12 -13 29 -37 37 -53 8 -15 29 -45 47 -66 18 -20 33 -43 33
-50 0 -7 13 -26 29 -41 16 -16 35 -42 42 -59 7 -16 24 -42 37 -56 14 -14 31
-40 38 -57 7 -17 20 -37 29 -44 9 -8 26 -32 37 -54 11 -23 34 -57 49 -77 16
-20 29 -42 29 -47 0 -6 11 -23 24 -39 13 -15 33 -48 46 -73 13 -25 34 -58 47
-74 14 -17 29 -40 34 -53 5 -13 22 -41 38 -61 16 -20 32 -48 36 -62 4 -14 18
-35 30 -48 13 -12 29 -37 36 -55 7 -17 28 -52 46 -76 18 -24 33 -49 33 -56 0
-6 11 -25 25 -41 14 -16 34 -49 46 -72 11 -24 31 -56 45 -70 13 -15 24 -32 24
-38 0 -6 18 -38 40 -70 22 -33 40 -64 40 -70 0 -6 12 -24 26 -39 14 -16 35
-48 45 -73 11 -25 30 -57 44 -73 13 -16 27 -39 30 -50 4 -12 22 -42 41 -66 19
-25 34 -52 34 -62 0 -10 9 -26 20 -36 11 -10 32 -43 46 -74 15 -31 35 -65 45
-76 10 -11 25 -37 34 -58 9 -21 29 -57 45 -79 17 -23 30 -49 30 -58 0 -9 13
-34 30 -56 16 -21 35 -56 40 -77 6 -20 24 -56 39 -80 16 -23 33 -58 38 -77 6
-19 22 -52 37 -74 14 -21 31 -56 36 -78 6 -21 22 -55 35 -75 14 -19 30 -53 35
-75 6 -21 24 -59 40 -85 16 -25 32 -59 35 -77 4 -17 20 -52 35 -78 16 -25 34
-66 40 -90 7 -23 20 -54 30 -68 10 -14 26 -49 35 -78 21 -63 52 -83 91 -57 30
20 30 28 -5 210 -16 83 -32 177 -36 210 -4 33 -13 71 -20 85 -23 44 -43 104
-50 155 -4 28 -20 75 -35 105 -16 31 -33 80 -38 110 -6 30 -22 75 -36 100 -14
25 -30 68 -36 95 -6 28 -24 77 -39 110 -16 33 -33 78 -37 100 -4 22 -22 68
-41 103 -18 35 -33 75 -33 89 0 14 -13 49 -29 77 -16 28 -35 74 -42 101 -7 28
-25 73 -40 100 -15 28 -30 66 -34 85 -4 19 -22 66 -41 104 -19 39 -34 78 -34
88 0 10 -16 47 -35 84 -19 36 -35 74 -35 83 0 10 -15 47 -34 82 -18 35 -37 80
-41 99 -4 19 -19 51 -32 71 -13 20 -31 58 -38 84 -8 25 -23 57 -34 71 -11 14
-30 51 -41 81 -11 31 -30 67 -40 81 -11 14 -27 47 -34 73 -8 27 -26 64 -39 81
-14 18 -29 49 -35 68 -5 19 -21 52 -36 74 -14 21 -31 57 -37 79 -6 22 -22 55
-35 72 -13 17 -30 50 -38 72 -8 23 -26 58 -39 80 -14 21 -31 56 -37 78 -7 22
-24 54 -37 72 -13 17 -29 48 -35 69 -5 21 -21 53 -35 71 -14 17 -31 52 -38 75
-7 24 -25 61 -39 83 -15 21 -29 50 -32 64 -4 14 -20 47 -36 73 -16 26 -36 67
-43 90 -7 24 -18 55 -25 69 -10 22 -9 32 9 65 12 21 21 44 21 51 0 8 14 41 30
76 40 82 54 222 46 450 -5 147 -9 177 -32 240 -14 40 -32 99 -41 131 -8 33
-25 78 -38 101 -14 22 -31 59 -39 82 -8 22 -28 60 -45 83 -17 24 -31 49 -31
56 0 6 -16 31 -35 54 -19 23 -35 46 -35 51 0 5 -8 17 -18 27 -10 10 -31 35
-47 57 -41 54 -178 189 -231 227 -24 17 -44 35 -44 38 0 4 -13 13 -29 20 -16
6 -42 25 -58 41 -15 15 -33 29 -39 29 -7 0 -35 15 -63 34 -28 19 -61 38 -74
42 -24 7 -86 36 -127 59 -14 8 -35 15 -48 15 -13 0 -69 15 -125 34 -92 30
-117 34 -262 40 -220 8 -409 -5 -505 -37 -42 -14 -109 -30 -149 -36 -40 -6
-95 -23 -122 -36 -26 -14 -72 -30 -101 -36 -29 -7 -75 -24 -103 -39 -27 -16
-66 -31 -85 -35 -19 -4 -55 -20 -80 -35 -25 -16 -63 -33 -85 -39 -22 -6 -56
-22 -75 -36 -19 -14 -53 -30 -75 -36 -22 -6 -56 -22 -77 -36 -20 -13 -69 -33
-110 -44 -40 -11 -89 -24 -108 -29 -54 -15 -112 -12 -181 8 -35 11 -86 24
-114 31 -27 7 -63 23 -80 35 -16 13 -41 27 -55 31 -14 4 -47 25 -74 46 -27 22
-55 39 -62 39 -7 0 -23 14 -36 30 -12 17 -27 30 -33 30 -6 0 -30 17 -52 38
-23 20 -67 57 -98 82 -117 93 -264 222 -269 236 -3 8 -12 14 -19 14 -8 0 -30
17 -50 38 -20 20 -53 51 -74 69 -21 17 -61 51 -89 75 -97 82 -139 117 -189
157 -27 22 -64 53 -81 70 -16 17 -34 31 -38 31 -5 0 -26 15 -46 33 -46 39
-112 86 -153 109 -16 9 -45 31 -64 47 -19 17 -41 31 -48 31 -7 0 -33 15 -58
34 -24 19 -55 37 -68 41 -13 4 -40 20 -59 35 -19 16 -53 33 -75 39 -22 6 -60
24 -85 41 -25 16 -54 30 -65 30 -11 0 -47 14 -80 31 -33 17 -86 38 -118 45
-31 8 -79 25 -105 38 -26 13 -79 29 -119 35 -39 6 -103 22 -141 36 -39 14
-112 29 -168 35 -116 12 -298 36 -369 49 -69 13 -354 19 -505 11z m6241 -2451
c42 -9 63 -22 109 -66 51 -48 61 -65 85 -138 24 -72 26 -88 17 -122 -34 -123
-64 -166 -157 -228 -67 -45 -96 -55 -160 -55 -65 0 -90 9 -170 61 -56 36 -66
48 -105 125 -38 76 -42 90 -38 142 5 64 60 187 92 206 11 6 30 23 43 38 39 44
171 61 284 37z"/>
<path d="M1279 3173 c-11 -12 -14 -55 -14 -172 0 -179 18 -352 45 -431 27 -79
38 -125 51 -215 6 -44 14 -84 19 -90 12 -15 46 -134 54 -188 4 -27 19 -70 32
-97 14 -28 31 -80 38 -117 7 -38 26 -92 40 -121 15 -29 30 -69 33 -90 3 -20
18 -59 33 -87 16 -27 33 -70 40 -95 6 -25 24 -65 40 -90 15 -25 31 -59 35 -77
3 -18 16 -44 27 -58 11 -14 30 -46 42 -70 42 -86 151 -198 229 -235 18 -8 52
-27 77 -42 25 -14 65 -29 90 -33 25 -4 71 -20 102 -35 31 -16 85 -33 120 -38
35 -6 89 -22 122 -36 32 -14 86 -30 120 -36 34 -5 101 -23 149 -40 76 -26 101
-30 196 -30 84 0 111 3 121 15 16 20 6 58 -32 112 -16 25 -32 61 -35 82 -9 65
-9 65 341 72 171 3 319 9 328 13 10 5 20 17 24 28 6 21 -13 78 -27 78 -5 0
-21 18 -35 40 -15 22 -31 40 -36 40 -5 0 -28 15 -51 34 -23 19 -56 38 -72 41
-17 4 -51 20 -77 36 -25 15 -71 32 -101 38 -30 5 -83 21 -117 35 -42 17 -106
31 -189 41 -69 8 -151 22 -181 31 -30 9 -95 25 -144 35 -49 11 -103 28 -120
39 -17 11 -46 27 -65 36 -47 22 -138 110 -169 164 -14 25 -36 57 -48 72 -12
15 -26 42 -29 60 -4 18 -20 56 -36 83 -15 28 -34 84 -42 125 -9 41 -25 107
-36 145 -19 61 -40 265 -41 382 0 26 -11 43 -57 87 -31 30 -69 58 -83 61 -14
3 -41 19 -60 34 -19 16 -46 32 -60 36 -14 4 -46 23 -71 41 -26 19 -52 34 -58
34 -6 0 -28 16 -50 35 -21 19 -42 35 -46 35 -10 0 -106 75 -154 120 -20 19
-48 45 -62 57 -43 38 -99 102 -99 112 0 17 -36 13 -51 -6z"/>
<path d="M4196 1908 c-26 -17 -71 -37 -99 -44 -29 -7 -85 -25 -125 -39 -61
-22 -92 -26 -205 -28 -125 -2 -132 -3 -135 -23 -2 -12 10 -34 30 -55 28 -29
95 -105 173 -194 82 -95 108 -124 170 -189 39 -41 100 -108 138 -148 218 -236
297 -319 439 -460 87 -87 164 -158 171 -158 8 0 24 -12 38 -26 13 -15 40 -33
59 -41 19 -9 53 -27 75 -42 22 -15 59 -33 83 -40 24 -7 62 -23 85 -36 24 -13
65 -26 92 -30 28 -4 86 -20 131 -36 108 -38 202 -48 499 -56 222 -5 254 -4
283 11 18 9 32 22 32 29 0 22 -38 89 -60 104 -11 8 -32 37 -45 64 -20 39 -23
54 -15 69 6 11 12 21 13 21 1 1 160 7 352 14 377 12 384 13 427 70 17 22 16
24 -12 61 -41 53 -118 134 -128 134 -4 0 -22 14 -39 30 -17 17 -49 36 -71 44
-22 8 -57 26 -79 40 -21 13 -56 28 -78 32 -22 4 -74 20 -115 36 -65 25 -96 30
-240 38 -91 5 -280 10 -420 10 -267 0 -409 14 -452 45 -13 8 -29 15 -38 15 -8
0 -31 16 -50 35 -19 19 -70 67 -114 107 -110 103 -467 461 -551 553 -38 43
-78 86 -87 96 -27 29 -77 24 -132 -13z"/>
</g>
</svg>
